<svg
  height="10"
  viewBox="0 0 50 50"
  fill="none"
  xmlns="http://www.w3.org/2000/svg">
  <path
    fill-rule="evenodd"
    clip-rule="evenodd"
    d="M0 24.9999C-1.2932e-07 21.9316 2.48736 19.4442 5.55568 19.4442L44.4443 19.4442C47.5126 19.4442 50 21.9316 50 24.9999C50 28.0682 47.5126 30.5556 44.4443 30.5556L5.55568 30.5556C2.48736 30.5556 1.2932e-07 28.0682 0 24.9999Z"
    fill="white"
  />
  <path
    fill-rule="evenodd"
    clip-rule="evenodd"
    d="M24.9997 0C28.068 0 30.5553 2.48736 30.5553 5.55568V44.4443C30.5553 47.5126 28.068 50 24.9997 50C21.9313 50 19.444 47.5126 19.444 44.4443V5.55568C19.444 2.48736 21.9313 0 24.9997 0Z"
    fill="white"
  />
</svg>