<svg
  height="22"
  viewBox="0 0 48 50"
  fill="none"
  xmlns="http://www.w3.org/2000/svg">
  <path
    d="M45.9998 49.9999C47.1044 49.9999 48.0072 49.1033 47.9288 48.0016C47.7345 45.2715 47.1431 42.5876 46.1729 40.0502C44.9668 36.8957 43.199 34.0295 40.9704 31.6152C38.7418 29.2009 36.0961 27.2857 33.1843 25.9791C30.2725 24.6725 27.1516 24 23.9999 24C20.8482 24 17.7273 24.6725 14.8155 25.9791C11.9037 27.2857 9.258 29.2009 7.02941 31.6152C4.80081 34.0295 3.03299 36.8957 1.82688 40.0502C0.8567 42.5876 0.265254 45.2715 0.070992 48.0016C-0.00740835 49.1033 0.895431 49.9999 2 49.9999L23.9999 49.9999H45.9998Z"
    fill="#D5DCEB"/>
  <ellipse cx="24.0004" cy="13.9999" rx="12" ry="13.9999" fill="#D5DCEB"/>
</svg>