<svg
  height="20"
  viewBox="0 0 42 50"
  fill="none"
  xmlns="http://www.w3.org/2000/svg">
  <path d="M38.9001 5.56668H27.7667V1.4C27.7712 1.21774 27.7391 1.03644 27.6724 0.866759C27.6057 0.697081 27.5058 0.54246 27.3784 0.412001C27.2511 0.281542 27.0989 0.177883 26.9309 0.107126C26.7629 0.0363694 26.5824 -5.41754e-05 26.4001 6.04808e-08H15.2667C15.0844 -5.41754e-05 14.9039 0.0363694 14.7359 0.107126C14.5679 0.177883 14.4157 0.281542 14.2883 0.412001C14.161 0.54246 14.061 0.697081 13.9943 0.866759C13.9277 1.03644 13.8956 1.21774 13.9 1.4V5.56668H2.76667C2.03291 5.56668 1.32919 5.85817 0.81034 6.37702C0.291488 6.89587 0 7.59959 0 8.33336C0 9.06712 0.291488 9.77084 0.81034 10.2897C1.32919 10.8085 2.03291 11.1 2.76667 11.1H38.9001C39.6339 11.1 40.3376 10.8085 40.8564 10.2897C41.3753 9.77084 41.6668 9.06712 41.6668 8.33336C41.6668 7.59959 41.3753 6.89587 40.8564 6.37702C40.3376 5.85817 39.6339 5.56668 38.9001 5.56668ZM16.6667 2.76667H25.0001V5.56668H16.6667V2.76667Z"
        fill="#F26767"
  />
  <path d="M35.1341 13.8998H6.66739C6.19701 13.897 5.73135 13.9937 5.30103 14.1837C4.8707 14.3736 4.48546 14.6525 4.17061 15.002C3.85576 15.3515 3.61845 15.7636 3.47427 16.2114C3.33008 16.6591 3.28229 17.1323 3.33405 17.5999L6.66739 47.0333C6.75802 47.8523 7.14884 48.6088 7.76441 49.1567C8.37999 49.7045 9.17668 50.0049 10.0007 49.9999H31.7675C32.5915 50.0049 33.3882 49.7045 34.0038 49.1567C34.6194 48.6088 35.0102 47.8523 35.1008 47.0333L38.4341 17.5999C38.4856 17.1351 38.4387 16.6648 38.2965 16.2193C38.1542 15.7739 37.9199 15.3634 37.6087 15.0144C37.2975 14.6655 36.9163 14.3859 36.49 14.1939C36.0637 14.0019 35.6017 13.9017 35.1341 13.8998ZM13.3341 44.4333C13.1502 44.4422 12.9663 44.4148 12.793 44.3526C12.6197 44.2904 12.4604 44.1947 12.3242 44.0708C12.1879 43.947 12.0774 43.7975 11.9991 43.6309C11.9207 43.4643 11.876 43.2838 11.8674 43.0999L10.5341 20.9332C10.503 20.7335 10.5155 20.5295 10.5707 20.3351C10.6259 20.1408 10.7226 19.9607 10.854 19.8072C10.9855 19.6537 11.1486 19.5305 11.3321 19.446C11.5157 19.3615 11.7153 19.3178 11.9174 19.3178C12.1195 19.3178 12.3191 19.3615 12.5027 19.446C12.6863 19.5305 12.8493 19.6537 12.9808 19.8072C13.1122 19.9607 13.2089 20.1408 13.2641 20.3351C13.3193 20.5295 13.3318 20.7335 13.3007 20.9332L14.4674 43.1333C14.4507 43.4454 14.3301 43.7429 14.1247 43.9785C13.9193 44.2141 13.641 44.3742 13.3341 44.4333ZM22.4008 43.0666C22.4008 43.4379 22.2533 43.794 21.9907 44.0565C21.7282 44.3191 21.3721 44.4666 21.0008 44.4666C20.6295 44.4666 20.2734 44.3191 20.0108 44.0565C19.7483 43.794 19.6008 43.4379 19.6008 43.0666V20.8332C19.6008 20.4619 19.7483 20.1058 20.0108 19.8432C20.2734 19.5807 20.6295 19.4332 21.0008 19.4332C21.3721 19.4332 21.7282 19.5807 21.9907 19.8432C22.2533 20.1058 22.4008 20.4619 22.4008 20.8332V43.0666ZM30.1341 43.0666C30.1256 43.2505 30.0808 43.4309 30.0025 43.5975C29.9241 43.7641 29.8136 43.9136 29.6774 44.0375C29.5411 44.1614 29.3818 44.2571 29.2085 44.3193C29.0352 44.3815 28.8514 44.4089 28.6675 44.3999C28.3019 44.3742 27.9611 44.2062 27.718 43.932C27.475 43.6578 27.3491 43.2992 27.3674 42.9333L28.5341 20.7332C28.503 20.5335 28.5155 20.3295 28.5708 20.1351C28.626 19.9408 28.7226 19.7607 28.8541 19.6072C28.9855 19.4537 29.1486 19.3305 29.3322 19.246C29.5157 19.1615 29.7154 19.1178 29.9175 19.1178C30.1195 19.1178 30.3192 19.1615 30.5027 19.246C30.6863 19.3305 30.8494 19.4537 30.9808 19.6072C31.1123 19.7607 31.2089 19.9408 31.2641 20.1351C31.3194 20.3295 31.3319 20.5335 31.3008 20.7332L30.1341 43.0666Z"
        fill="#F26767"
  />
</svg>