<svg
  height="12"
  viewBox="0 0 49 50"
  fill="none"
  xmlns="http://www.w3.org/2000/svg">
  <path
    fill-rule="evenodd"
    clip-rule="evenodd"
    d="M20.4021 22.2088C18.8606 23.7503 18.8606 26.2497 20.4021 27.7912L41.4548 48.8438C42.9963 50.3854 45.4957 50.3854 47.0372 48.8438C48.5787 47.3023 48.5787 44.803 47.0372 43.2614L28.7758 25L47.0372 6.73858C48.5787 5.19704 48.5787 2.6977 47.0372 1.15616C45.4957 -0.385387 42.9963 -0.385387 41.4548 1.15616L20.4021 22.2088Z"
    fill="#7185AF"
  />
  <path
    fill-rule="evenodd"
    clip-rule="evenodd"
    d="M1.15606 22.2088C-0.385486 23.7503 -0.385486 26.2497 1.15606 27.7912L22.2087 48.8438C23.7502 50.3854 26.2496 50.3854 27.7911 48.8438C29.3327 47.3023 29.3327 44.803 27.7911 43.2614L9.52969 25L27.7911 6.73858C29.3327 5.19704 29.3327 2.6977 27.7911 1.15616C26.2496 -0.385385 23.7502 -0.385385 22.2087 1.15616L1.15606 22.2088Z"
    fill="#7185AF"
  />
</svg>