<svg
  height="50"
  viewBox="0 0 50 50"
  fill="none"
  xmlns="http://www.w3.org/2000/svg">
<path
  fill-rule="evenodd"
  clip-rule="evenodd"
  d="M50 25C50 38.8071 38.8071 50 25 50C11.1929 50 0 38.8071 0 25C0 11.1929 11.1929 0 25 0C38.8071 0 50 11.1929 50 25ZM25 41C23.5273 41 22.3335 39.8062 22.3335 38.3334V27.6666H11.6665C10.1938 27.6666 9 26.4728 9 25C9 23.5272 10.1938 22.3334 11.6665 22.3334H22.3335V11.6666C22.3335 10.1938 23.5273 9 25 9C26.4727 9 27.6665 10.1938 27.6665 11.6666V22.3334H38.3335C39.8062 22.3334 41 23.5272 41 25C41 26.4728 39.8062 27.6666 38.3335 27.6666H27.6665V38.3334C27.6665 39.8062 26.4727 41 25 41Z"
  fill="#DBDBE5"/>
</svg>
