<svg
  height="17"
  viewBox="0 0 75 50"
  fill="none"
  xmlns="http://www.w3.org/2000/svg">
  <path
    fill-rule="evenodd"
    clip-rule="evenodd"
    d="M55.7098 9.84394C35.7879 0.441612 15.5509 8.04636 0 24.8227C7.52545 33.935 15.559 39.5271 23.6568 42.2844L29.2121 36.6619C25.3865 34.0977 22.8734 29.7703 22.8734 24.864C22.8734 16.992 29.3427 10.6105 37.3229 10.6105C42.1637 10.6105 46.4486 12.9586 49.0707 16.5632L55.7098 9.84394ZM35.1348 38.9551C35.8484 39.062 36.5791 39.1175 37.3229 39.1175C45.3032 39.1175 51.7725 32.7359 51.7725 24.864C51.7725 24.0041 51.6953 23.1621 51.5474 22.3442L61.0149 12.7622C65.7424 15.7403 70.4267 19.7251 75 24.8227C62.7484 38.2378 46.6059 46.4866 30.2357 43.9135L35.1348 38.9551Z"
    fill="grey"
  />
  <ellipse cx="37.1511" cy="24.7244" rx="7.49973" ry="7.58619" fill="blue" />
  <rect
    width="5.48143"
    height="64.613"
    transform="matrix(0.70324 0.710953 -0.702846 0.711342 57.624 0.105347)"
    fill="grey"
  />
</svg>

