<svg
  height="9"
  viewBox="0 0 50 50"
  fill="none"
  xmlns="http://www.w3.org/2000/svg">
  <path fill-rule="evenodd"
        clip-rule="evenodd"
        d="M48.707 48.844C50.0666 47.4844 49.9986 45.2121 48.5551 43.7686L30.1073 25.3208L48.5548 6.87328C49.9983 5.42978 50.0663 3.15744 48.7068 1.79787C47.3472 0.438304 45.0749 0.506346 43.6314 1.94985L25.1839 20.3974L6.73605 1.94956C5.29255 0.506057 3.02021 0.438015 1.66064 1.79758C0.301073 3.15715 0.369114 5.42949 1.81261 6.87299L20.2604 25.3208L1.81235 43.7689C0.368849 45.2124 0.300809 47.4847 1.66038 48.8443C3.01995 50.2038 5.29228 50.1358 6.73578 48.6923L25.1839 30.2442L43.6316 48.692C45.0751 50.1355 47.3475 50.2036 48.707 48.844Z"
        fill="#7185AF"
  />
</svg>
