<svg
  height="20"
  viewBox="0 0 39 50"
  fill="none"
  xmlns="http://www.w3.org/2000/svg">
  <path d="M0 3.42773C0 1.53465 1.53465 0 3.42773 0H35.4612C37.3542 0 38.8889 1.53465 38.8889 3.42773V46.5723C38.8889 48.4654 37.3542 50 35.4612 50H3.42773C1.53465 50 0 48.4654 0 46.5723V3.42773Z" fill="#9CC5DC"/>
  <path d="M5.55518 6.94446C5.55518 6.1774 6.17701 5.55557 6.94407 5.55557H12.4996C13.2667 5.55557 13.8885 6.1774 13.8885 6.94446C13.8885 7.71153 13.2667 8.33335 12.4996 8.33335H6.94407C6.17701 8.33335 5.55518 7.71153 5.55518 6.94446Z" fill="white"/>
  <path d="M5.55518 19.4445C5.55518 17.9104 6.79883 16.6667 8.33296 16.6667C9.86708 16.6667 11.1107 17.9104 11.1107 19.4445C11.1107 20.9786 9.86708 22.2223 8.33296 22.2223C6.79883 22.2223 5.55518 20.9786 5.55518 19.4445Z" fill="white"/>
  <path d="M13.8887 18.0556C13.8887 17.2886 14.5106 16.6667 15.2776 16.6667H31.9443C32.7114 16.6667 33.3332 17.2886 33.3332 18.0556C33.3332 18.8227 32.7114 19.4445 31.9443 19.4445H15.2776C14.5106 19.4445 13.8887 18.8227 13.8887 18.0556Z" fill="white"/>
  <path d="M13.8887 26.3888C13.8887 25.6217 14.5106 24.9999 15.2776 24.9999H26.3887C27.1558 24.9999 27.7776 25.6217 27.7776 26.3888C27.7776 27.1558 27.1558 27.7777 26.3887 27.7777H15.2776C14.5106 27.7777 13.8887 27.1558 13.8887 26.3888Z" fill="white"/>
  <path d="M13.8887 34.7223C13.8887 33.9553 14.5106 33.3335 15.2776 33.3335H31.9443C32.7114 33.3335 33.3332 33.9553 33.3332 34.7223C33.3332 35.4894 32.7114 36.1112 31.9443 36.1112H15.2776C14.5106 36.1112 13.8887 35.4894 13.8887 34.7223Z" fill="white"/>
  <path d="M5.55518 27.7777C5.55518 26.2435 6.79883 24.9999 8.33296 24.9999C9.86708 24.9999 11.1107 26.2435 11.1107 27.7777C11.1107 29.3118 9.86708 30.5554 8.33296 30.5554C6.79883 30.5554 5.55518 29.3118 5.55518 27.7777Z" fill="white"/>
  <path d="M5.55518 36.1112C5.55518 34.5771 6.79883 33.3335 8.33296 33.3335C9.86708 33.3335 11.1107 34.5771 11.1107 36.1112C11.1107 37.6453 9.86708 38.889 8.33296 38.889C6.79883 38.889 5.55518 37.6453 5.55518 36.1112Z" fill="white"/>
</svg>