<svg
  height="12"
  viewBox="0 0 49 50"
  fill="none"
  xmlns="http://www.w3.org/2000/svg">
  <path
    fill-rule="evenodd"
    clip-rule="evenodd"
    d="M27.7912 22.2088C29.3328 23.7503 29.3328 26.2497 27.7912 27.7912L6.73858 48.8438C5.19704 50.3854 2.6977 50.3854 1.15616 48.8438C-0.385384 47.3023 -0.385384 44.803 1.15616 43.2614L19.4176 25L1.15616 6.73858C-0.385382 5.19704 -0.385382 2.6977 1.15616 1.15616C2.6977 -0.385387 5.19704 -0.385387 6.73858 1.15616L27.7912 22.2088Z"
    fill="#7185AF"
  />
  <path
    fill-rule="evenodd"
    clip-rule="evenodd"
    d="M47.0373 22.2088C48.5788 23.7503 48.5788 26.2497 47.0373 27.7912L25.9847 48.8438C24.4431 50.3854 21.9438 50.3854 20.4022 48.8438C18.8607 47.3023 18.8607 44.803 20.4022 43.2614L38.6637 25L20.4022 6.73858C18.8607 5.19704 18.8607 2.6977 20.4022 1.15616C21.9438 -0.385385 24.4431 -0.385385 25.9847 1.15616L47.0373 22.2088Z"
    fill="#7185AF"
  />
</svg>