<svg
  height="37"
  viewBox="0 0 113 50"
  fill="none"
  xmlns="http://www.w3.org/2000/svg">

  <defs>
    <linearGradient id="paint0_linear_301_76" x1="74.606" y1="26.9102" x2="2.25377" y2="27.1796" gradientUnits="userSpaceOnUse">
      <stop offset="0.514338" stop-color="white" />
      <stop offset="1" stop-color="#454545" />
    </linearGradient>
    
    <linearGradient id="paint1_linear_301_76" x1="24.311" y1="30.8657" x2="24.654" y2="-6.2901" gradientUnits="userSpaceOnUse">
      <stop stop-color="#AE4BBE" />
      <stop offset="1" stop-color="#DCDCDC" />
    </linearGradient>
    
    <linearGradient id="paint2_linear_301_76" x1="24.2199" y1="41.2878" x2="25.2488" y2="8.93363" gradientUnits="userSpaceOnUse">
      <stop stop-color="#0DAEE1" />
      <stop offset="1" stop-color="white" />
    </linearGradient>
  </defs>
  
  <path d="M20.8644 3.71558C22.9165 1.66352 26.2435 1.66352 28.2956 3.71558L45.4444 20.8644C47.4965 22.9165 47.4965 26.2435 45.4444 28.2956L28.2956 45.4444C26.2435 47.4965 22.9165 47.4965 20.8644 45.4444L3.71559 28.2956C1.66353 26.2435 1.66353 22.9165 3.71559 20.8644L20.8644 3.71558ZM26.5807 5.43047C25.4758 4.32551 23.6843 4.32551 22.5793 5.43047L5.43047 22.5793C4.32552 23.6843 4.32552 25.4758 5.43047 26.5807L22.5793 43.7296C23.6843 44.8345 25.4758 44.8345 26.5807 43.7296L43.7296 26.5807C44.8345 25.4758 44.8345 23.6843 43.7296 22.5793L26.5807 5.43047Z"
        fill="url(#paint0_linear_301_76)" fill-rule="evenodd" clip-rule="evenodd"/>
  <path d="M33.7502 17.4398C34.8025 18.4922 34.8025 20.1983 33.7502 21.2507L26.1284 28.8724C25.0761 29.9247 23.3699 29.9247 22.3176 28.8724L14.6959 21.2507C13.6435 20.1983 13.6435 18.4922 14.6959 17.4398L22.3176 9.81811C23.3699 8.76577 25.0761 8.76577 26.1284 9.81811L33.7502 17.4398Z"
        fill="url(#paint1_linear_301_76)"/>
  <path d="M14.6928 31.7607C13.6404 30.7083 13.6404 29.0021 14.6928 27.9498L22.3145 20.3281C23.3668 19.2757 25.073 19.2757 26.1253 20.3281L33.7471 27.9498C34.7994 29.0021 34.7994 30.7083 33.7471 31.7607L26.1253 39.3824C25.073 40.4347 23.3668 40.4347 22.3145 39.3824L14.6928 31.7607Z"
        fill="url(#paint2_linear_301_76)"/>
  <path d="M40.0899 21.1058L40.2192 22.7442C40.9378 22.1118 41.642 21.6376 42.3319 21.3214C43.0217 21.0052 43.7331 20.8471 44.466 20.8471C45.9176 20.8471 46.8086 21.4579 47.1392 22.6795C48.5332 21.4579 49.9201 20.8471 51.2998 20.8471C52.2195 20.8471 52.9166 21.0914 53.3908 21.5801C53.8795 22.0687 54.1238 22.7873 54.1238 23.7358V31.6259H52.0543V24.3394C52.0543 23.7358 51.9321 23.2975 51.6878 23.0244C51.4578 22.737 51.0626 22.5933 50.5021 22.5933C49.9991 22.5933 49.5177 22.7154 49.0578 22.9598C48.6123 23.1897 48.0158 23.5706 47.2685 24.1023V31.6259H45.2637V24.3394C45.2637 23.7071 45.1343 23.2616 44.8756 23.0029C44.6169 22.7298 44.2289 22.5933 43.7115 22.5933C43.2085 22.5933 42.7271 22.7083 42.2672 22.9382C41.8217 23.1681 41.2181 23.549 40.4564 24.0807V31.6259H38.3868V21.1058H40.0899Z"
        fill="#454545"/>
  <path d="M57.5935 16.6003C58.0103 16.6003 58.2187 16.8087 58.2187 17.2255V18.4543C58.2187 18.871 58.0103 19.0794 57.5935 19.0794H56.6234C56.2067 19.0794 55.9983 18.871 55.9983 18.4543V17.2255C55.9983 16.8087 56.2067 16.6003 56.6234 16.6003H57.5935ZM58.1325 21.1058V31.6259H56.0845V21.1058H58.1325Z"
        fill="#454545"/>
  <path d="M61.903 21.1058L62.0754 22.7442C62.8515 22.1406 63.6276 21.6735 64.4037 21.3429C65.1941 21.0124 65.9773 20.8471 66.7534 20.8471C68.6648 20.8471 69.6206 21.81 69.6206 23.7358V31.6259H67.5295V24.3394C67.5295 23.6783 67.4145 23.2256 67.1846 22.9813C66.969 22.7226 66.6097 22.5933 66.1067 22.5933C65.5175 22.5933 64.9282 22.7298 64.339 23.0029C63.7497 23.2616 63.0527 23.628 62.2479 24.1023V31.6259H60.1784V21.1058H61.903Z"
        fill="#454545"/>
  <path d="M73.0905 16.6003C73.5072 16.6003 73.7156 16.8087 73.7156 17.2255V18.4543C73.7156 18.871 73.5072 19.0794 73.0905 19.0794H72.1204C71.7036 19.0794 71.4952 18.871 71.4952 18.4543V17.2255C71.4952 16.8087 71.7036 16.6003 72.1204 16.6003H73.0905ZM73.6294 21.1058V31.6259H71.5814V21.1058H73.6294Z"
        fill="#454545"/>
  <path d="M84.1097 23.8652V25.7514H75.9179V23.8652H84.1097Z"
        fill="#454545"/>
  <path d="M88.3291 16.7512V31.6259H86.1734V16.7512H88.3291Z"
        fill="#454545"/>
  <path d="M101.686 16.7512V18.6052H96.9435V31.6259H94.7877V18.6052H90.0667V16.7512H101.686Z"
        fill="#454545"/>
  <path d="M107.721 16.4925C108.44 16.4925 109.18 16.5285 109.942 16.6003C110.718 16.6578 111.487 16.7728 112.248 16.9452L112.098 18.4758C111.465 18.4471 110.768 18.4255 110.006 18.4111C109.245 18.3968 108.505 18.3896 107.786 18.3896C107.111 18.3896 106.564 18.4255 106.148 18.4974C105.731 18.5549 105.422 18.7345 105.221 19.0363C105.034 19.3237 104.94 19.8052 104.94 20.4807C104.94 21.2423 105.084 21.7741 105.372 22.0759C105.659 22.3777 106.126 22.6148 106.773 22.7873L109.769 23.5849C110.919 23.8867 111.71 24.3754 112.141 25.0508C112.572 25.7263 112.787 26.6389 112.787 27.7886C112.787 28.924 112.608 29.7863 112.248 30.3755C111.904 30.9648 111.357 31.3672 110.61 31.5827C109.863 31.7839 108.893 31.8845 107.7 31.8845C107.211 31.8845 106.564 31.863 105.76 31.8199C104.955 31.7768 104.028 31.6546 102.979 31.4534L103.13 29.8797C103.978 29.9084 104.667 29.93 105.199 29.9444C105.731 29.9587 106.191 29.9731 106.579 29.9875C106.967 29.9875 107.362 29.9875 107.764 29.9875C108.483 29.9875 109.051 29.9372 109.468 29.8366C109.884 29.7216 110.179 29.506 110.351 29.1899C110.524 28.8737 110.61 28.3994 110.61 27.7671C110.61 26.9623 110.466 26.4161 110.179 26.1287C109.891 25.8413 109.439 25.6185 108.821 25.4604L105.738 24.6197C104.66 24.3323 103.899 23.8508 103.453 23.1753C103.007 22.4855 102.785 21.5801 102.785 20.4591C102.785 19.295 102.957 18.4327 103.302 17.8722C103.647 17.3117 104.186 16.9452 104.919 16.7728C105.652 16.5859 106.586 16.4925 107.721 16.4925Z"
        fill="#454545"/>
</svg>