<svg width="156" height="62" viewBox="0 0 156 62" fill="none" xmlns="http://www.w3.org/2000/svg">
<path fill-rule="evenodd" clip-rule="evenodd" d="M51.7016 18.6293L39.365 6.2928C37.2171 4.14491 33.7347 4.14491 31.5869 6.2928L6.53 31.3497C4.38211 33.4975 4.38211 36.98 6.52999 39.1278L22 54.5978V60.9618L3.34801 42.3098C-0.557231 38.4046 -0.557225 32.0729 3.34802 28.1677L28.4049 3.11081C32.3101 -0.794428 38.6418 -0.794424 42.547 3.11082L51.7016 12.2654V18.6293ZM33.1837 43.0239C34.7784 44.5146 37.0924 45.2599 40.1257 45.2599C41.1657 45.2599 42.0931 45.1819 42.9077 45.0259C43.7397 44.8873 44.5284 44.6879 45.2737 44.4279V40.1379C44.4937 40.4673 43.7051 40.7099 42.9077 40.8659C42.1277 41.0219 41.3217 41.0999 40.4897 41.0999C38.9644 41.0999 37.7944 40.7619 36.9797 40.0859C36.1824 39.3926 35.7837 38.2659 35.7837 36.7059C35.7837 35.1113 36.1651 33.9586 36.9277 33.2479C37.6904 32.5199 38.8604 32.1559 40.4377 32.1559C42.1364 32.1559 43.7311 32.4853 45.2217 33.1439V28.8799C44.4764 28.6026 43.6964 28.3859 42.8817 28.2299C42.0671 28.0739 41.1397 27.9959 40.0997 27.9959C37.0144 27.9959 34.6917 28.7499 33.1317 30.2579C31.5717 31.7486 30.7917 33.8979 30.7917 36.7059C30.7917 39.4273 31.589 41.5333 33.1837 43.0239ZM55.4048 45.2599C52.6314 45.2599 50.5081 44.5839 49.0348 43.2319C47.5788 41.8799 46.8508 39.6959 46.8508 36.6799C46.8508 34.5999 47.1801 32.9273 47.8388 31.6619C48.4975 30.3793 49.4594 29.4519 50.7248 28.8799C52.0074 28.2906 53.5674 27.9959 55.4048 27.9959C57.2421 27.9959 58.7934 28.2906 60.0588 28.8799C61.3414 29.4519 62.3121 30.3793 62.9708 31.6619C63.6294 32.9273 63.9588 34.5999 63.9588 36.6799C63.9588 39.6959 63.2221 41.8799 61.7488 43.2319C60.2754 44.5839 58.1608 45.2599 55.4048 45.2599ZM55.4048 41.0999C56.6528 41.0999 57.5541 40.7533 58.1088 40.0599C58.6808 39.3493 58.9668 38.2226 58.9668 36.6799C58.9668 35.0333 58.6808 33.8719 58.1088 33.1959C57.5541 32.5026 56.6528 32.1559 55.4048 32.1559C54.1568 32.1559 53.2468 32.5026 52.6748 33.1959C52.1201 33.8719 51.8428 35.0333 51.8428 36.6799C51.8428 38.2226 52.1201 39.3493 52.6748 40.0599C53.2468 40.7533 54.1568 41.0999 55.4048 41.0999ZM144.426 38.8639V44.9999H149.314V38.8639L155.346 28.2559H150.25L146.87 34.5739L143.49 28.2559H138.394L144.426 38.8639ZM58.102 57.1719C58.102 59.8039 59.354 61.1199 61.858 61.1199C64.362 61.1199 65.614 59.8039 65.614 57.1719C65.614 55.7559 65.298 54.7319 64.666 54.0999C64.034 53.4679 63.098 53.1519 61.858 53.1519C60.618 53.1519 59.682 53.4679 59.05 54.0999C58.418 54.7319 58.102 55.7559 58.102 57.1719ZM63.454 59.1159C63.118 59.5319 62.586 59.7399 61.858 59.7399C61.13 59.7399 60.594 59.5319 60.25 59.1159C59.914 58.6919 59.746 58.0439 59.746 57.1719C59.746 56.2039 59.914 55.5239 60.25 55.1319C60.594 54.7319 61.13 54.5319 61.858 54.5319C62.586 54.5319 63.118 54.7319 63.454 55.1319C63.798 55.5239 63.97 56.2039 63.97 57.1719C63.97 58.0439 63.798 58.6919 63.454 59.1159ZM93.1856 57.1719C93.1856 59.8039 94.4376 61.1199 96.9416 61.1199C99.4456 61.1199 100.698 59.8039 100.698 57.1719C100.698 55.7559 100.382 54.7319 99.7496 54.0999C99.1176 53.4679 98.1816 53.1519 96.9416 53.1519C95.7016 53.1519 94.7656 53.4679 94.1336 54.0999C93.5016 54.7319 93.1856 55.7559 93.1856 57.1719ZM98.5376 59.1159C98.2016 59.5319 97.6696 59.7399 96.9416 59.7399C96.2136 59.7399 95.6776 59.5319 95.3336 59.1159C94.9976 58.6919 94.8296 58.0439 94.8296 57.1719C94.8296 56.2039 94.9976 55.5239 95.3336 55.1319C95.6776 54.7319 96.2136 54.5319 96.9416 54.5319C97.6696 54.5319 98.2016 54.7319 98.5376 55.1319C98.8816 55.5239 99.0536 56.2039 99.0536 57.1719C99.0536 58.0439 98.8816 58.6919 98.5376 59.1159ZM106.028 61.1199C104.732 61.1199 103.748 60.7799 103.076 60.0999C102.404 59.4199 102.068 58.4759 102.068 57.2679C102.068 55.9879 102.408 54.9839 103.088 54.2559C103.768 53.5199 104.78 53.1519 106.124 53.1519C106.588 53.1519 107.008 53.1799 107.384 53.2359C107.76 53.2839 108.116 53.3639 108.452 53.4759V54.8679C108.116 54.7479 107.76 54.6639 107.384 54.6159C107.016 54.5599 106.636 54.5319 106.244 54.5319C105.324 54.5319 104.672 54.7599 104.288 55.2159C103.904 55.6639 103.712 56.3479 103.712 57.2679C103.712 58.9239 104.492 59.7519 106.052 59.7519C106.324 59.7519 106.588 59.7319 106.844 59.6919C107.108 59.6439 107.34 59.5839 107.54 59.5119V57.7119H105.74V56.6799H108.908V60.4599C108.644 60.6279 108.276 60.7799 107.804 60.9159C107.332 61.0519 106.74 61.1199 106.028 61.1199ZM110.271 57.1719C110.271 59.8039 111.523 61.1199 114.027 61.1199C116.531 61.1199 117.783 59.8039 117.783 57.1719C117.783 55.7559 117.467 54.7319 116.835 54.0999C116.203 53.4679 115.267 53.1519 114.027 53.1519C112.787 53.1519 111.851 53.4679 111.219 54.0999C110.587 54.7319 110.271 55.7559 110.271 57.1719ZM115.623 59.1159C115.287 59.5319 114.755 59.7399 114.027 59.7399C113.299 59.7399 112.763 59.5319 112.419 59.1159C112.083 58.6919 111.915 58.0439 111.915 57.1719C111.915 56.2039 112.083 55.5239 112.419 55.1319C112.763 54.7319 113.299 54.5319 114.027 54.5319C114.755 54.5319 115.287 54.7319 115.623 55.1319C115.967 55.5239 116.139 56.2039 116.139 57.1719C116.139 58.0439 115.967 58.6919 115.623 59.1159ZM122.51 60.9999V53.2719H124.13V56.5119H127.502V53.2719H129.122V60.9999H127.502V57.7599H124.13V60.9999H122.51ZM130.97 53.2719V60.9999H136.514V59.7519H132.59V57.7599H136.07V56.5119H132.59V54.5319H136.514V53.2719H130.97ZM138.118 60.9999V53.2719H141.826C142.714 53.2719 143.366 53.5079 143.782 53.9799C144.198 54.4439 144.406 55.0719 144.406 55.8639C144.406 56.3839 144.27 56.8319 143.998 57.2079C143.734 57.5839 143.358 57.8559 142.87 58.0239C142.998 58.1279 143.098 58.2399 143.17 58.3599C143.25 58.4799 143.33 58.6399 143.41 58.8399L144.346 60.9999H142.666L141.754 58.9239C141.674 58.7479 141.586 58.6239 141.49 58.5519C141.394 58.4799 141.234 58.4439 141.01 58.4439H139.738V60.9999H138.118ZM139.738 57.0999H141.406C141.83 57.0999 142.162 57.0079 142.402 56.8239C142.642 56.6319 142.762 56.3119 142.762 55.8639C142.762 55.4319 142.658 55.1159 142.45 54.9159C142.242 54.7159 141.926 54.6159 141.502 54.6159H139.738V57.0999ZM146.016 60.9999V53.2719H151.56V54.5319H147.636V56.5119H151.116V57.7599H147.636V59.7519H151.56V60.9999H146.016ZM86.8635 60.9999V53.2719H88.4835V59.7519H92.2875V60.9999H86.8635ZM75.8488 53.2719V60.9999H77.4688V58.4439H78.7408C78.9648 58.4439 79.1248 58.4799 79.2208 58.5519C79.3168 58.6239 79.4048 58.7479 79.4848 58.9239L80.3968 60.9999H82.0768L81.1408 58.8399C81.0608 58.6399 80.9808 58.4799 80.9008 58.3599C80.8288 58.2399 80.7288 58.1279 80.6008 58.0239C81.0888 57.8559 81.4648 57.5839 81.7288 57.2079C82.0008 56.8319 82.1368 56.3839 82.1368 55.8639C82.1368 55.0719 81.9288 54.4439 81.5128 53.9799C81.0968 53.5079 80.4448 53.2719 79.5568 53.2719H75.8488ZM79.1368 57.0999H77.4688V54.6159H79.2328C79.6568 54.6159 79.9728 54.7159 80.1808 54.9159C80.3888 55.1159 80.4928 55.4319 80.4928 55.8639C80.4928 56.3119 80.3728 56.6319 80.1328 56.8239C79.8928 57.0079 79.5608 57.0999 79.1368 57.0999ZM70.6203 61.1199C69.5563 61.1199 68.7123 60.8639 68.0883 60.3519C67.4723 59.8319 67.1643 59.0799 67.1643 58.0959V53.2719H68.7843V57.9759C68.7843 58.5679 68.9443 59.0119 69.2643 59.3079C69.5843 59.5959 70.0363 59.7399 70.6203 59.7399C71.2043 59.7399 71.6523 59.5959 71.9643 59.3079C72.2843 59.0119 72.4443 58.5679 72.4443 57.9759V53.2719H74.0643V58.0959C74.0643 59.0799 73.7563 59.8319 73.1403 60.3519C72.5243 60.8639 71.6843 61.1199 70.6203 61.1199ZM53.3627 60.9999V58.1439L50.5907 53.2719H52.2827L54.1787 56.7639L56.0747 53.2719H57.7547L54.9827 58.1439V60.9999H53.3627ZM121.205 44.9999V28.2559H125.365L131.683 37.1219V28.2559H136.571V44.9999H132.385L126.093 36.1599V44.9999H121.205ZM107.264 28.2559L100.842 44.9999H105.938L107.316 41.4379H112.36L113.764 44.9999H118.86L112.438 28.2559H107.264ZM109.838 33.0139L111.71 37.9279H107.966L109.838 33.0139ZM86.9538 44.9999V28.2559H95.5858C96.9551 28.2559 98.0817 28.5333 98.9658 29.0879C99.8671 29.6253 100.534 30.3619 100.968 31.2979C101.401 32.2339 101.618 33.2739 101.618 34.4179C101.618 35.5966 101.366 36.6453 100.864 37.5639C100.361 38.4826 99.6504 39.2019 98.7317 39.7219C97.8131 40.2419 96.7298 40.5019 95.4817 40.5019H91.8418V44.9999H86.9538ZM91.8418 36.7579H94.3638C95.1264 36.7579 95.6898 36.5413 96.0537 36.1079C96.4351 35.6746 96.6258 35.1113 96.6258 34.4179C96.6258 33.6726 96.4524 33.0833 96.1058 32.6499C95.7591 32.2166 95.2217 31.9999 94.4938 31.9999H91.8418V36.7579ZM66.299 28.2559V44.9999H71.187V36.6279L73.891 42.1399H76.517L79.195 36.6279V44.9999H84.083V28.2559H79.351L75.217 36.7579L71.057 28.2559H66.299ZM34 9.99997C34 9.81463 34.0126 9.63222 34.037 9.45358C33.8583 9.58102 33.6877 9.72491 33.5273 9.88528L10.9244 32.4882C9.36233 34.0503 9.36233 36.5829 10.9244 38.145L33.5273 60.7479C33.7405 60.9611 33.9717 61.1451 34.216 61.3001C34.076 60.8925 34 60.4551 34 60V54.8566L14.46 35.3166L34 15.7766V9.99997Z" fill="#C6CBDF"/>
</svg>
